# xmcd
#
# Track frame offsets: 
#        187
#        12472
#        23827
#        37505
#        50112
#        63790
#        76462
#        90182
#        100777
#        115460
#        125455
#        138922
#        148455
#        158117
#        169500
#        181667
#        193970
#        205882
#        216567
#        228355
#        245617
#        257312
#        271657
#        294962
#        305532
#        318365
#
# Disc length: 4442 seconds
#
# Revision: 6
# Processed by: cddbd v1.5.2PL0 Copyright (c) Steve Scherf et al.
# Submitted via: ExactAudioCopy v0.99pb5
#
DISCID=6611581a
DTITLE=BB King - King Of The Blues [Disc 1]
DYEAR=1992
DGENRE=Blues
TTITLE0=Miss Martha King
TTITLE1=She's Dynamite
TTITLE2=Three O'Clock Blues
TTITLE3=Please Love Me
TTITLE4=You Upset Me Baby
TTITLE5=Everyday I Have The Blues
TTITLE6=Rock Me Baby
TTITLE7=Recession Blues
TTITLE8=Don't Get Around Much Anymore
TTITLE9=I'm Gonna Sit In 'Til You Give In
TTITLE10=Blues At Midnight
TTITLE11=Sneakin' Around
TTITLE12=My Baby's Comin' Home
TTITLE13=Slowly Losing My Mind
TTITLE14=How Blue Can You Get
TTITLE15=Rockin' Awhile
TTITLE16=Help The Poor
TTITLE17=Stop Leadin' Me On
TTITLE18=Never Trust A Woman
TTITLE19=Sweet Little Angel
TTITLE20=All Over Again
TTITLE21=Sloppy Drunk
TTITLE22=Don't Answer The Door Parts 1 and 2
TTITLE23=I Done Got Wise
TTITLE24=Think It Over
TTITLE25=Gambler's Blues
EXTD=
EXTT0=Bullet, 1949, previously unreleased on U.S. LP
EXTT1=RPM, 1951
EXTT2=RPM, 1951
EXTT3=RPM, 1952 or 1953
EXTT4=RPM, 1953
EXTT5=RPM, 1955
EXTT6=Kent, 1958
EXTT7=Chess, 1958
EXTT8=Kent, 1961
EXTT9=ABC, 1962
EXTT10=ABC, 1962
EXTT11=ABC, 1962
EXTT12=ABC, 1962
EXTT13=ABC, 1962, previously unreleased on LP
EXTT14=ABC, 1963, previously unreleased on LP
EXTT15=ABC, 1963, previously unreleased
EXTT16=ABC, 1964 - Previously Unissued On LP
EXTT17=ABC, 1964, previously unreleased on LP
EXTT18=ABC, 1964, previously unreleased on LP
EXTT19=Live "Regal Theatre," ABC, 1964
EXTT20=ABC-Bluesway, 1965
EXTT21=1966, previously unreleased
EXTT22=ABC-Bluesway 1966
EXTT23=Bluesway, 1966
EXTT24=Bluesway, 1966
EXTT25=Live, Bluesway, 1966
PLAYORDER=
